{
    "asset" : {
        "generator" : "Khronos glTF Blender I/O v1.8.19",
        "version" : "2.0"
    },
    "scene" : 0,
    "scenes" : [
        {
            "name" : "Scene",
            "nodes" : [
                0,
                1,
                2
            ]
        }
    ],
    "nodes" : [
        {
            "mesh" : 0,
            "name" : "Curve",
            "scale" : [
                14.440889358520508,
                14.440889358520508,
                14.440889358520508
            ]
        },
        {
            "mesh" : 1,
            "name" : "Curve.001",
            "scale" : [
                14.440889358520508,
                14.440889358520508,
                14.440889358520508
            ]
        },
        {
            "mesh" : 2,
            "name" : "Curve.002",
            "scale" : [
                14.440889358520508,
                14.440889358520508,
                14.440889358520508
            ]
        }
    ],
    "animations" : [
        {
            "channels" : [
                {
                    "sampler" : 0,
                    "target" : {
                        "node" : 0,
                        "path" : "translation"
                    }
                },
                {
                    "sampler" : 1,
                    "target" : {
                        "node" : 0,
                        "path" : "rotation"
                    }
                },
                {
                    "sampler" : 2,
                    "target" : {
                        "node" : 0,
                        "path" : "scale"
                    }
                }
            ],
            "name" : "CurveAction",
            "samplers" : [
                {
                    "input" : 12,
                    "interpolation" : "LINEAR",
                    "output" : 13
                },
                {
                    "input" : 12,
                    "interpolation" : "LINEAR",
                    "output" : 14
                },
                {
                    "input" : 12,
                    "interpolation" : "LINEAR",
                    "output" : 15
                }
            ]
        },
        {
            "channels" : [
                {
                    "sampler" : 0,
                    "target" : {
                        "node" : 1,
                        "path" : "translation"
                    }
                },
                {
                    "sampler" : 1,
                    "target" : {
                        "node" : 1,
                        "path" : "rotation"
                    }
                },
                {
                    "sampler" : 2,
                    "target" : {
                        "node" : 1,
                        "path" : "scale"
                    }
                }
            ],
            "name" : "Curve.001Action.001",
            "samplers" : [
                {
                    "input" : 12,
                    "interpolation" : "LINEAR",
                    "output" : 16
                },
                {
                    "input" : 12,
                    "interpolation" : "LINEAR",
                    "output" : 17
                },
                {
                    "input" : 12,
                    "interpolation" : "LINEAR",
                    "output" : 18
                }
            ]
        },
        {
            "channels" : [
                {
                    "sampler" : 0,
                    "target" : {
                        "node" : 2,
                        "path" : "translation"
                    }
                },
                {
                    "sampler" : 1,
                    "target" : {
                        "node" : 2,
                        "path" : "rotation"
                    }
                },
                {
                    "sampler" : 2,
                    "target" : {
                        "node" : 2,
                        "path" : "scale"
                    }
                }
            ],
            "name" : "Curve.002Action",
            "samplers" : [
                {
                    "input" : 12,
                    "interpolation" : "LINEAR",
                    "output" : 19
                },
                {
                    "input" : 12,
                    "interpolation" : "LINEAR",
                    "output" : 20
                },
                {
                    "input" : 12,
                    "interpolation" : "LINEAR",
                    "output" : 21
                }
            ]
        }
    ],
    "materials" : [
        {
            "doubleSided" : true,
            "name" : "Material.001",
            "pbrMetallicRoughness" : {
                "baseColorFactor" : [
                    0.7991029620170593,
                    0.17464745044708252,
                    0,
                    1
                ],
                "metallicFactor" : 0,
                "roughnessFactor" : 0.1499999761581421
            }
        }
    ],
    "meshes" : [
        {
            "name" : "Curve.003",
            "primitives" : [
                {
                    "attributes" : {
                        "POSITION" : 0,
                        "NORMAL" : 1,
                        "TEXCOORD_0" : 2
                    },
                    "indices" : 3,
                    "material" : 0
                }
            ]
        },
        {
            "name" : "Curve.004",
            "primitives" : [
                {
                    "attributes" : {
                        "POSITION" : 4,
                        "NORMAL" : 5,
                        "TEXCOORD_0" : 6
                    },
                    "indices" : 7,
                    "material" : 0
                }
            ]
        },
        {
            "name" : "Curve.005",
            "primitives" : [
                {
                    "attributes" : {
                        "POSITION" : 8,
                        "NORMAL" : 9,
                        "TEXCOORD_0" : 10
                    },
                    "indices" : 11,
                    "material" : 0
                }
            ]
        }
    ],
    "accessors" : [
        {
            "bufferView" : 0,
            "componentType" : 5126,
            "count" : 608,
            "max" : [
                0.08995417505502701,
                0,
                0.05927017331123352
            ],
            "min" : [
                -0.02752641960978508,
                -0.009999999776482582,
                0.0021230168640613556
            ],
            "type" : "VEC3"
        },
        {
            "bufferView" : 1,
            "componentType" : 5126,
            "count" : 608,
            "type" : "VEC3"
        },
        {
            "bufferView" : 2,
            "componentType" : 5126,
            "count" : 608,
            "type" : "VEC2"
        },
        {
            "bufferView" : 3,
            "componentType" : 5123,
            "count" : 3636,
            "type" : "SCALAR"
        },
        {
            "bufferView" : 4,
            "componentType" : 5126,
            "count" : 608,
            "max" : [
                0.03624056279659271,
                0,
                -0.008757811039686203
            ],
            "min" : [
                -0.08123958110809326,
                -0.009999999776482582,
                -0.06590214371681213
            ],
            "type" : "VEC3"
        },
        {
            "bufferView" : 5,
            "componentType" : 5126,
            "count" : 608,
            "type" : "VEC3"
        },
        {
            "bufferView" : 6,
            "componentType" : 5126,
            "count" : 608,
            "type" : "VEC2"
        },
        {
            "bufferView" : 7,
            "componentType" : 5123,
            "count" : 3636,
            "type" : "SCALAR"
        },
        {
            "bufferView" : 8,
            "componentType" : 5126,
            "count" : 608,
            "max" : [
                0.06309735774993896,
                0,
                0.025257598608732224
            ],
            "min" : [
                -0.05438276752829552,
                -0.009999999776482582,
                -0.03188955411314964
            ],
            "type" : "VEC3"
        },
        {
            "bufferView" : 9,
            "componentType" : 5126,
            "count" : 608,
            "type" : "VEC3"
        },
        {
            "bufferView" : 10,
            "componentType" : 5126,
            "count" : 608,
            "type" : "VEC2"
        },
        {
            "bufferView" : 11,
            "componentType" : 5123,
            "count" : 3636,
            "type" : "SCALAR"
        },
        {
            "bufferView" : 12,
            "componentType" : 5126,
            "count" : 61,
            "max" : [
                2.5
            ],
            "min" : [
                0
            ],
            "type" : "SCALAR"
        },
        {
            "bufferView" : 13,
            "componentType" : 5126,
            "count" : 61,
            "type" : "VEC3"
        },
        {
            "bufferView" : 14,
            "componentType" : 5126,
            "count" : 61,
            "type" : "VEC4"
        },
        {
            "bufferView" : 15,
            "componentType" : 5126,
            "count" : 61,
            "type" : "VEC3"
        },
        {
            "bufferView" : 16,
            "componentType" : 5126,
            "count" : 61,
            "type" : "VEC3"
        },
        {
            "bufferView" : 17,
            "componentType" : 5126,
            "count" : 61,
            "type" : "VEC4"
        },
        {
            "bufferView" : 18,
            "componentType" : 5126,
            "count" : 61,
            "type" : "VEC3"
        },
        {
            "bufferView" : 19,
            "componentType" : 5126,
            "count" : 61,
            "type" : "VEC3"
        },
        {
            "bufferView" : 20,
            "componentType" : 5126,
            "count" : 61,
            "type" : "VEC4"
        },
        {
            "bufferView" : 21,
            "componentType" : 5126,
            "count" : 61,
            "type" : "VEC3"
        }
    ],
    "bufferViews" : [
        {
            "buffer" : 0,
            "byteLength" : 7296,
            "byteOffset" : 0
        },
        {
            "buffer" : 0,
            "byteLength" : 7296,
            "byteOffset" : 7296
        },
        {
            "buffer" : 0,
            "byteLength" : 4864,
            "byteOffset" : 14592
        },
        {
            "buffer" : 0,
            "byteLength" : 7272,
            "byteOffset" : 19456
        },
        {
            "buffer" : 0,
            "byteLength" : 7296,
            "byteOffset" : 26728
        },
        {
            "buffer" : 0,
            "byteLength" : 7296,
            "byteOffset" : 34024
        },
        {
            "buffer" : 0,
            "byteLength" : 4864,
            "byteOffset" : 41320
        },
        {
            "buffer" : 0,
            "byteLength" : 7272,
            "byteOffset" : 46184
        },
        {
            "buffer" : 0,
            "byteLength" : 7296,
            "byteOffset" : 53456
        },
        {
            "buffer" : 0,
            "byteLength" : 7296,
            "byteOffset" : 60752
        },
        {
            "buffer" : 0,
            "byteLength" : 4864,
            "byteOffset" : 68048
        },
        {
            "buffer" : 0,
            "byteLength" : 7272,
            "byteOffset" : 72912
        },
        {
            "buffer" : 0,
            "byteLength" : 244,
            "byteOffset" : 80184
        },
        {
            "buffer" : 0,
            "byteLength" : 732,
            "byteOffset" : 80428
        },
        {
            "buffer" : 0,
            "byteLength" : 976,
            "byteOffset" : 81160
        },
        {
            "buffer" : 0,
            "byteLength" : 732,
            "byteOffset" : 82136
        },
        {
            "buffer" : 0,
            "byteLength" : 732,
            "byteOffset" : 82868
        },
        {
            "buffer" : 0,
            "byteLength" : 976,
            "byteOffset" : 83600
        },
        {
            "buffer" : 0,
            "byteLength" : 732,
            "byteOffset" : 84576
        },
        {
            "buffer" : 0,
            "byteLength" : 732,
            "byteOffset" : 85308
        },
        {
            "buffer" : 0,
            "byteLength" : 976,
            "byteOffset" : 86040
        },
        {
            "buffer" : 0,
            "byteLength" : 732,
            "byteOffset" : 87016
        }
    ],
    "buffers" : [
        {
            "byteLength" : 87748,
            "uri" : "scene.bin"
        }
    ]
}
