<svg id="Слой_1" data-name="Слой 1" xmlns="http://www.w3.org/2000/svg" viewBox="0 0 326.772 417.205"><defs><style>.cls-1{fill:#fff;stroke:#1d1d1b;stroke-miterlimit:10;stroke-width:25px;}.cls-2{fill:none;stroke:#010101;stroke-linecap:round;stroke-linejoin:round;stroke-width:14px;}</style></defs><path class="cls-1" d="M443,550.945c-14.28,7.224-55.844,26.244-115.059,26.055-58.156-.186-98.943-18.79-113.3-26.055v-260A344.639,344.639,0,0,0,327.941,310,344.982,344.982,0,0,0,443,290.945Z" transform="translate(-201.394 -232.5)"/><ellipse class="cls-1" cx="127.425" cy="45" rx="114.181" ry="32.5"/><path class="cls-2" d="M208.394,619.605h92.4m-92.4,0,23.1-23.1m-23.1,23.1,23.1,23.1" transform="translate(-201.394 -232.5)"/><path class="cls-2" d="M449.244,619.605H278.56m170.683,0-23.1,23.1m23.1-23.1-23.1-23.1" transform="translate(-201.394 -232.5)"/><path class="cls-2" d="M498.066,300.52v92.4m0-92.4,23.1,23.1m-23.1-23.1-23.1,23.1" transform="translate(-201.394 -232.5)"/><path class="cls-2" d="M498.066,577V382.051m0,194.95-23.1-23.1m23.1,23.1,23.1-23.1" transform="translate(-201.394 -232.5)"/></svg>