<svg id="_Слой_1" data-name="Слой 1" xmlns="http://www.w3.org/2000/svg" viewBox="0 0 608.31 443.66">
  <defs>
    <style>
      .cls-1 {
        fill: #f7931e;
      }
    </style>
  </defs>
  <path class="cls-1" d="m0,163.82C100.44,111.54,200.88,59.25,301.32,6.96c8.26-3.07,36.12-12.34,68.19-2.68,28,8.43,43.2,26.48,48.47,33.45L120.35,192.66c-6.76,3.26-36.77,16.83-72.38,5.45-27.19-8.69-42.57-27.11-47.97-34.29"/>
  <path class="cls-1" d="m95.16,284.36c100.44-52.29,200.88-104.57,301.32-156.86,8.26-3.07,36.12-12.34,68.19-2.68,28,8.43,43.2,26.48,48.47,33.45l-297.63,154.94c-6.76,3.26-36.77,16.83-72.38,5.45-27.19-8.69-42.57-27.11-47.97-34.29"/>
  <path class="cls-1" d="m190.32,404.9c100.44-52.29,200.88-104.57,301.32-156.86,8.26-3.07,36.12-12.34,68.19-2.68,28,8.43,43.2,26.48,48.47,33.45l-297.63,154.94c-6.76,3.26-36.77,16.83-72.38,5.45-27.19-8.69-42.57-27.11-47.97-34.29"/>
</svg>