<?xml version="1.0" encoding="UTF-8"?>
<svg id="_Слой_1" data-name="Слой 1" xmlns="http://www.w3.org/2000/svg" viewBox="0 0 73.192 73.192">
  <defs>
    <style>
      .cls-1 {
        fill: #fff;
      }

      .cls-2 {
        fill: #f49622;
      }
    </style>
  </defs>
  <rect class="cls-1" width="73.192" height="73.192"/>
  <path class="cls-2" d="m20.127,63.096c14.485-7.54,28.97-15.081,43.455-22.621,1.172-.436,5.081-1.73,9.61-.446V0H0v24.118c12.009-6.251,24.017-12.503,36.026-18.754,1.192-.443,5.209-1.779,9.833-.387,4.039,1.216,6.23,3.818,6.991,4.823L9.928,32.144c-.943.455-5.019,2.288-9.928.929v40.118h73.192v-24.525l-35.709,18.589c-.975.471-5.303,2.427-10.438.786-3.922-1.253-6.139-3.909-6.918-4.946m-13.926-17.481c14.485-7.54,28.97-15.081,43.455-22.621,1.192-.443,5.209-1.779,9.833-.387,4.039,1.216,6.23,3.818,6.991,4.823l-42.923,22.344c-.975.471-5.303,2.427-10.438.786-3.922-1.253-6.139-3.909-6.918-4.945"/>
</svg>