<svg id="Слой_1" data-name="Слой 1" xmlns="http://www.w3.org/2000/svg" viewBox="0 0 511.156 73.191"><defs><style>.cls-1{fill:#1e1e1c;}.cls-2{fill:#f49625;}.cls-3{fill:#f49624;}</style></defs><rect class="cls-1" x="503.645" y="15.484" width="7.511" height="52.277" rx="1"/><rect class="cls-1" x="470.59" y="15.484" width="7.511" height="52.277" rx="1"/><rect class="cls-1" x="477.33" y="37.144" width="26.315" height="6.568"/><path class="cls-1" d="M513.784,557.5h-1.395a.981.981,0,0,0-.981-.981v-2.3a.981.981,0,0,0,.981-.981h1.395a.981.981,0,0,0,.981.981v2.3A.981.981,0,0,0,513.784,557.5Z" transform="translate(-35.687 -517.076)"/><path class="cls-1" d="M513.784,561.763h-1.395a.981.981,0,0,0-.981-.981v-2.3a.981.981,0,0,0,.981-.981h1.395a.981.981,0,0,0,.981.981v2.3A.981.981,0,0,0,513.784,561.763Z" transform="translate(-35.687 -517.076)"/><path class="cls-1" d="M540.729,561.763h-1.4a.981.981,0,0,0-.981-.981v-2.3a.981.981,0,0,0,.981-.981h1.4a.981.981,0,0,0,.981.981v2.3A.981.981,0,0,0,540.729,561.763Z" transform="translate(-35.687 -517.076)"/><path class="cls-1" d="M540.736,557.5h-1.395a.981.981,0,0,0-.981-.981v-2.3a.981.981,0,0,0,.981-.981h1.395a.981.981,0,0,0,.981.981v2.3A.981.981,0,0,0,540.736,557.5Z" transform="translate(-35.687 -517.076)"/><rect class="cls-1" x="451.465" y="15.575" width="7.511" height="52.277" rx="1"/><path class="cls-1" d="M486.488,532.806a7.841,7.841,0,0,0-4.467,2.84l-13.635,23.126c.17.081.418.189.725.3a8.179,8.179,0,0,0-2.054,1.855l-13.635,23.126a7.7,7.7,0,0,0,4.666.64,7.2,7.2,0,0,0,4.632-3.2l13.468-22.843c-.153-.072-.374-.168-.644-.265a7.573,7.573,0,0,0,2.14-2.173l13.468-22.843a7.443,7.443,0,0,0-4.664-.559Z" transform="translate(-35.687 -517.076)"/><path class="cls-1" d="M450.259,566.714l-.042-31.745a10.2,10.2,0,0,1,2.712-5.771,8.887,8.887,0,0,1,4.861-2.581l.042,31.356a9.333,9.333,0,0,1-2.663,6.238,9.154,9.154,0,0,1-4.909,2.5" transform="translate(-35.687 -517.076)"/><rect class="cls-1" x="414.582" y="17.173" width="7.511" height="50.57" rx="1"/><rect class="cls-1" x="453.011" y="557.942" width="35.5" height="6.675" transform="translate(-287.783 163.062) rotate(-59.35)"/><path class="cls-1" d="M488.208,539.2l1.1.542-1.732,3.532-.387-.19a.8.8,0,0,0-.366-1.07l1.379-2.814Z" transform="translate(-35.687 -517.076)"/><path class="cls-1" d="M487.1,538.66l1.105.542-1.379,2.814a.8.8,0,0,0-1.07.366l-.387-.19,1.732-3.532Z" transform="translate(-35.687 -517.076)"/><path class="cls-1" d="M456.463,577.481l-1.059-.627,2-3.384.37.219a.8.8,0,0,0,.28,1.1l-1.6,2.7Z" transform="translate(-35.687 -517.076)"/><path class="cls-1" d="M457.521,578.108l-1.059-.627,1.6-2.7a.8.8,0,0,0,1.1-.28l.37.219Z" transform="translate(-35.687 -517.076)"/><path class="cls-1" d="M471.2,522.2h5.173a4.337,4.337,0,0,1,2.493,1.2,3.855,3.855,0,0,1,1.085,2.146l-13.667,0a3.865,3.865,0,0,1-3.748-3.345" transform="translate(-35.687 -517.076)"/><path class="cls-1" d="M475.453,522.2h5.205a2,2,0,0,1,2,2v.345a1,1,0,0,1-1,1h-6.205V522.2Z" transform="translate(-35.687 -517.076)"/><path class="cls-1" d="M415.093,533.946l5.507-2.238a1.074,1.074,0,0,1,1.4.6l20.322,50.9a1.09,1.09,0,0,1-.6,1.414l-.687.1h-6.006a1.161,1.161,0,0,1-.662-.174,1.236,1.236,0,0,1-.519-.706c-13.579-34.016-19.186-48.05-19.228-48.157l-.128-.32c-.027-.067-.163-.427.6-1.414Z" transform="translate(-35.687 -517.076)"/><path class="cls-2" d="M408,562.484l8.66,0a6.669,6.669,0,0,1,4.174,2.563,9.359,9.359,0,0,1,1.817,4.585l-22.879.006a5.968,5.968,0,0,1-4.515-2.517,9.721,9.721,0,0,1-1.759-4.631" transform="translate(-35.687 -517.076)"/><path class="cls-2" d="M422.931,562.484h-7.809v7.149h11.061a.853.853,0,0,0,.707-.293.839.839,0,0,0,.163-.664l-2.241-5.444a2.763,2.763,0,0,0-1.593-.741,2.361,2.361,0,0,0-.289-.007Z" transform="translate(-35.687 -517.076)"/><path class="cls-1" d="M421.492,531.752a2.066,2.066,0,0,0-1.331-.344,8.962,8.962,0,0,0-2.5.689,10.2,10.2,0,0,0-4.683,4.329L402.637,562.02h7.968a9.294,9.294,0,0,0,.783-1.415l10.982-27.18a2.185,2.185,0,0,0-.879-1.673Z" transform="translate(-35.687 -517.076)"/><path class="cls-1" d="M399.28,570.115l-5.432,13.332a1,1,0,0,0,.56,1.3l.645.091h5.639a1.112,1.112,0,0,0,.621-.16,1.133,1.133,0,0,0,.487-.65c2.088-5.126,3.972-9.75,5.669-13.914Z" transform="translate(-35.687 -517.076)"/><path class="cls-1" d="M419.412,538.133l-5.17-2.059a1.016,1.016,0,0,0-1.316.554L402.58,562.02h8.189c6.309-15.484,9.055-22.22,9.084-22.291.055-.136.1-.235.12-.294s.153-.393-.56-1.3Z" transform="translate(-35.687 -517.076)"/><path class="cls-1" d="M366.792,537.57l-5.17-2.059a1.016,1.016,0,0,0-1.316.554l-19.077,46.82a1,1,0,0,0,.56,1.3l.645.091h5.639a1.112,1.112,0,0,0,.621-.16,1.133,1.133,0,0,0,.487-.65c12.748-31.292,18.011-44.2,18.051-44.3.055-.136.1-.235.12-.294s.153-.393-.56-1.3Z" transform="translate(-35.687 -517.076)"/><path class="cls-1" d="M362.473,533.384l5.507-2.238a1.074,1.074,0,0,1,1.4.6L389.7,582.643a1.09,1.09,0,0,1-.6,1.414l-.687.1h-6.006a1.161,1.161,0,0,1-.662-.174,1.236,1.236,0,0,1-.519-.706c-13.579-34.016-19.186-48.05-19.228-48.157l-.128-.32c-.027-.067-.163-.427.6-1.414Z" transform="translate(-35.687 -517.076)"/><path class="cls-1" d="M367.542,530.845a8.962,8.962,0,0,0-2.5.689,10.2,10.2,0,0,0-4.683,4.329L348.467,565.3a9.161,9.161,0,0,0,5.49-.475,9.328,9.328,0,0,0,4.812-4.78l10.982-27.18a2.185,2.185,0,0,0-.879-1.673,2.066,2.066,0,0,0-1.331-.344Z" transform="translate(-35.687 -517.076)"/><path class="cls-1" d="M366.281,545.827c-.028-.065-.311-.689-.836-.725-.585-.04-.916.688-.932.725v-2.673h1.768Z" transform="translate(-35.687 -517.076)"/><rect class="cls-1" x="273.764" y="15.482" width="7.511" height="52.277" rx="1"/><rect class="cls-1" x="279.135" y="37.254" width="20.265" height="6.533" rx="1"/><path class="cls-1" d="M316.481,578.306h16.391a5.535,5.535,0,0,1,5.533,5.533h0a1,1,0,0,1-1,1H316.481a1,1,0,0,1-1-1v-4.533a1,1,0,0,1,1-1Z" transform="translate(-35.687 -517.076)"/><path class="cls-1" d="M315.35,532.558h18.136a5.535,5.535,0,0,1,5.533,5.533h0a1,1,0,0,1-1,1H315.35a1,1,0,0,1-1-1v-4.533A1,1,0,0,1,315.35,532.558Z" transform="translate(-35.687 -517.076)"/><path class="cls-1" d="M316.954,556.121h-.472a1,1,0,0,1-1-1v-.75a1,1,0,0,1,1-1h.472a1,1,0,0,0,1,1v.75A1,1,0,0,0,316.954,556.121Z" transform="translate(-35.687 -517.076)"/><path class="cls-1" d="M316.957,580.1h-.472a1,1,0,0,1-1-1v-.75a1,1,0,0,1,1-1h.472a1,1,0,0,0,1,1v.75A1,1,0,0,0,316.957,580.1Z" transform="translate(-35.687 -517.076)"/><path class="cls-1" d="M316.961,561.864h-.472a1,1,0,0,1-1-1v-.75a1,1,0,0,1,1-1h.472a1,1,0,0,0,1,1v.75A1,1,0,0,0,316.961,561.864Z" transform="translate(-35.687 -517.076)"/><path class="cls-1" d="M316.957,540.09h-.472a1,1,0,0,1-1-1v-.75a1,1,0,0,1,1-1h.472a1,1,0,0,0,1,1v.75A1,1,0,0,0,316.957,540.09Z" transform="translate(-35.687 -517.076)"/><path class="cls-1" d="M294.572,532.558H289.84A1.621,1.621,0,0,0,288.5,533l-20.76,22.246,1.983,1.851a4,4,0,0,0,5.654-.2,138.708,138.708,0,0,0,10.548-11.37,87.778,87.778,0,0,1,10.014-10.664c.63-.563,1.16-1.018,1.52-1.324q.759-.344.725-.568-.071-.468-3.611-.415Z" transform="translate(-35.687 -517.076)"/><path class="cls-1" d="M295.342,584.589H290.61a1.5,1.5,0,0,1-.713-.068,1.625,1.625,0,0,1-.629-.408l-20.76-24.145,1.983-2.009a3.783,3.783,0,0,1,5.654.212,146.634,146.634,0,0,1,10.548,12.341,92.744,92.744,0,0,0,10.014,11.575c.63.611,1.16,1.105,1.52,1.437q.759.374.725.616-.071.509-3.611.45Z" transform="translate(-35.687 -517.076)"/><path class="cls-1" d="M269.521,555.107h-2.8v-2.8h1.8a1,1,0,0,0,1,1Z" transform="translate(-35.687 -517.076)"/><path class="cls-1" d="M268.447,564.025l-2.5-.406,1.166-7.2,4.478.725-.846,5.224a2,2,0,0,0-2.294,1.655Z" transform="translate(-35.687 -517.076)"/><rect class="cls-1" x="231.607" y="38.415" width="2.741" height="2"/><path class="cls-1" d="M275.767,557.872l-1.35,1.35-2.057-2.057,2.057-2.057,1.35,1.35A1,1,0,0,0,275.767,557.872Z" transform="translate(-35.687 -517.076)"/><path class="cls-1" d="M234.905,532.45h4.738a1.625,1.625,0,0,1,1.344.439q10.393,11.122,20.788,22.246l-1.986,1.851a4.009,4.009,0,0,1-5.661-.195,138.65,138.65,0,0,1-10.562-11.37,87.8,87.8,0,0,0-10.028-10.664c-.631-.563-1.162-1.018-1.522-1.324q-.761-.344-.726-.568.071-.468,3.616-.415Z" transform="translate(-35.687 -517.076)"/><path class="cls-1" d="M234.134,584.482h4.738a1.506,1.506,0,0,0,.714-.068,1.622,1.622,0,0,0,.63-.408L261,559.861l-1.986-2.009a3.791,3.791,0,0,0-5.661.212A146.549,146.549,0,0,0,242.8,570.405a92.748,92.748,0,0,1-10.028,11.575c-.631.611-1.162,1.105-1.522,1.437q-.761.374-.726.616.07.508,3.616.45Z" transform="translate(-35.687 -517.076)"/><path class="cls-1" d="M259.991,555H262.8v-2.8h-1.805a1,1,0,0,1-1,1Z" transform="translate(-35.687 -517.076)"/><path class="cls-1" d="M261.062,563.918l2.511-.406-1.168-7.2-4.484.725.847,5.225a2,2,0,0,1,2.294,1.654Z" transform="translate(-35.687 -517.076)"/><rect class="cls-1" x="223.789" y="38.308" width="2.745" height="2"/><path class="cls-1" d="M253.736,557.764l1.352,1.35,2.06-2.057L255.088,555l-1.352,1.35A1,1,0,0,1,253.736,557.764Z" transform="translate(-35.687 -517.076)"/><path class="cls-1" d="M260.937,567.042,260.9,535.3a10.2,10.2,0,0,1,2.712-5.771,8.887,8.887,0,0,1,4.861-2.581l.042,31.356a9.333,9.333,0,0,1-2.663,6.238,9.154,9.154,0,0,1-4.909,2.5" transform="translate(-35.687 -517.076)"/><rect class="cls-1" x="225.26" y="17.501" width="7.511" height="50.57" rx="1"/><rect class="cls-1" x="179.438" y="15.252" width="7.511" height="52.277" rx="1"/><rect class="cls-1" x="146.384" y="15.252" width="7.511" height="52.277" rx="1"/><rect class="cls-1" x="153.123" y="36.912" width="26.315" height="6.568"/><path class="cls-1" d="M189.577,557.272h-1.4a.981.981,0,0,0-.981-.981V554a.981.981,0,0,0,.981-.981h1.4a.981.981,0,0,0,.981.981v2.3A.981.981,0,0,0,189.577,557.272Z" transform="translate(-35.687 -517.076)"/><path class="cls-1" d="M189.577,561.531h-1.4a.981.981,0,0,0-.981-.981v-2.3a.981.981,0,0,0,.981-.981h1.4a.981.981,0,0,0,.981.981v2.3A.981.981,0,0,0,189.577,561.531Z" transform="translate(-35.687 -517.076)"/><path class="cls-1" d="M216.522,561.531h-1.395a.981.981,0,0,0-.981-.981v-2.3a.981.981,0,0,0,.981-.981h1.395a.981.981,0,0,0,.981.981v2.3A.981.981,0,0,0,216.522,561.531Z" transform="translate(-35.687 -517.076)"/><path class="cls-1" d="M216.529,557.266h-1.4a.981.981,0,0,0-.981-.981v-2.3a.981.981,0,0,0,.981-.981h1.4a.981.981,0,0,0,.981.981v2.3A.981.981,0,0,0,216.529,557.266Z" transform="translate(-35.687 -517.076)"/><rect class="cls-1" x="127.195" y="15.252" width="7.511" height="52.277" rx="1"/><path class="cls-1" d="M162.218,532.483a7.841,7.841,0,0,0-4.467,2.84l-13.635,23.126c.17.081.418.189.725.3a8.179,8.179,0,0,0-2.054,1.855L129.152,583.73a7.7,7.7,0,0,0,4.666.64,7.2,7.2,0,0,0,4.632-3.205l13.468-22.843c-.153-.072-.374-.168-.644-.265a7.573,7.573,0,0,0,2.14-2.173l13.468-22.843a7.443,7.443,0,0,0-4.664-.559Z" transform="translate(-35.687 -517.076)"/><path class="cls-1" d="M125.989,566.391l-.042-31.745a10.2,10.2,0,0,1,2.712-5.771,8.887,8.887,0,0,1,4.861-2.581l.042,31.356a9.333,9.333,0,0,1-2.663,6.238,9.154,9.154,0,0,1-4.909,2.5" transform="translate(-35.687 -517.076)"/><rect class="cls-1" x="90.312" y="16.85" width="7.511" height="50.57" rx="1"/><rect class="cls-1" x="128.741" y="557.619" width="35.5" height="6.675" transform="translate(-446.465 -116.065) rotate(-59.35)"/><path class="cls-1" d="M163.938,538.879l1.105.542-1.732,3.532-.387-.19a.8.8,0,0,0-.366-1.07l1.379-2.814Z" transform="translate(-35.687 -517.076)"/><path class="cls-1" d="M162.833,538.337l1.1.542-1.379,2.814a.8.8,0,0,0-1.07.366l-.387-.19,1.732-3.532Z" transform="translate(-35.687 -517.076)"/><path class="cls-1" d="M132.193,577.158l-1.059-.627,2.005-3.384.37.219a.8.8,0,0,0,.28,1.1l-1.6,2.7Z" transform="translate(-35.687 -517.076)"/><path class="cls-1" d="M133.251,577.785l-1.059-.627,1.6-2.7a.8.8,0,0,0,1.1-.28l.37.219Z" transform="translate(-35.687 -517.076)"/><path class="cls-3" d="M55.814,580.172l43.455-22.621a15.791,15.791,0,0,1,9.61-.446V517.076H35.687v24.118L71.713,522.44a15.743,15.743,0,0,1,9.833-.387,13.722,13.722,0,0,1,6.991,4.823L45.615,549.22a14.48,14.48,0,0,1-9.928.929v40.118h73.192V565.742L73.17,584.331a14.4,14.4,0,0,1-10.438.786,14.12,14.12,0,0,1-6.918-4.946M41.888,562.69l43.455-22.621a15.743,15.743,0,0,1,9.833-.387,13.722,13.722,0,0,1,6.991,4.823L59.244,566.849a14.4,14.4,0,0,1-10.438.786,14.126,14.126,0,0,1-6.918-4.945" transform="translate(-35.687 -517.076)"/></svg>