<?xml version="1.0" encoding="UTF-8"?>
<svg id="_Слой_1" data-name="Слой 1" xmlns="http://www.w3.org/2000/svg" viewBox="0 0 420.895 62.951">
  <defs>
    <style>
      .cls-1 {
        fill: #ff931e;
      }
    </style>
  </defs>
  <g>
    <rect class="cls-1" x="413.385" y="10.364" width="7.511" height="52.277" rx="1" ry="1"/>
    <rect class="cls-1" x="380.33" y="10.364" width="7.511" height="52.277" rx="1" ry="1"/>
    <rect class="cls-1" x="387.07" y="32.024" width="26.315" height="6.568"/>
    <path class="cls-1" d="m387.837,35.308h-1.395c0-.542-.439-.981-.981-.981v-2.296c.542,0,.981-.439.981-.981h1.395c0,.542.439.981.981.981v2.296c-.542,0-.981.439-.981.981Z"/>
    <path class="cls-1" d="m387.837,39.567h-1.395c0-.542-.439-.981-.981-.981v-2.296c.542,0,.981-.439.981-.981h1.395c0,.542.439.981.981.981v2.296c-.542,0-.981.439-.981.981Z"/>
    <path class="cls-1" d="m414.782,39.567h-1.395c0-.542-.439-.981-.981-.981v-2.296c.542,0,.981-.439.981-.981h1.395c0,.542.439.981.981.981v2.296c-.542,0-.981.439-.981.981Z"/>
    <path class="cls-1" d="m414.789,35.302h-1.395c0-.542-.439-.981-.981-.981v-2.296c.542,0,.981-.439.981-.981h1.395c0,.542.439.981.981.981v2.296c-.542,0-.981.439-.981.981Z"/>
  </g>
  <g>
    <g>
      <rect class="cls-1" x="361.205" y="10.455" width="7.511" height="52.277" rx="1" ry="1"/>
      <path class="cls-1" d="m360.541,10.61c-2.56.539-4.042,2.296-4.467,2.84-4.545,7.709-9.09,15.417-13.635,23.126.17.081.418.189.725.3-1.104.696-1.787,1.514-2.054,1.855-4.545,7.709-9.09,15.417-13.635,23.126.666.314,2.474,1.061,4.666.64,2.871-.551,4.315-2.704,4.632-3.205l13.468-22.843c-.153-.072-.374-.168-.644-.265,1.241-.828,1.934-1.848,2.14-2.173l13.468-22.843c-.648-.304-2.428-1.03-4.664-.559Z"/>
      <path class="cls-1" d="m324.312,44.518c-.014-10.582-.028-21.164-.042-31.745.101-.818.531-3.527,2.712-5.771,1.905-1.96,4.056-2.444,4.861-2.581l.042,31.356c-.02.701-.187,3.774-2.663,6.238-1.891,1.882-4.081,2.364-4.909,2.503"/>
      <rect class="cls-1" x="324.322" y="12.053" width="7.511" height="50.57" rx="1" ry="1"/>
      <rect class="cls-1" x="341.476" y="21.333" width="6.675" height="35.5" transform="translate(68.096 -170.323) rotate(30.65)"/>
      <g>
        <path class="cls-1" d="m362.261,17.006l1.105.542-1.732,3.532-.387-.19c.194-.397.031-.876-.366-1.07l1.379-2.814Z"/>
        <path class="cls-1" d="m361.156,16.464l1.105.542-1.379,2.814c-.397-.194-.876-.031-1.07.366l-.387-.19,1.732-3.532Z"/>
        <path class="cls-1" d="m330.516,55.285l-1.059-.627,2.005-3.384.37.219c-.225.38-.1.871.28,1.096l-1.598,2.696Z"/>
        <path class="cls-1" d="m331.574,55.912l-1.059-.627,1.598-2.696c.38.225.871.1,1.096-.28l.37.219-2.005,3.384Z"/>
      </g>
    </g>
    <g>
      <path class="cls-1" d="m345.249,0c1.724,0,3.449,0,5.173,0,.356.045,1.533.236,2.493,1.199.839.841,1.032,1.79,1.085,2.146l-13.667.003c-.306-.009-1.644-.084-2.697-1.178-.805-.835-.997-1.801-1.051-2.167"/>
      <path class="cls-1" d="m349.506.001h5.205c1.104,0,2,.896,2,2v.345c0,.552-.448,1-1,1h-6.205V.001h0Z"/>
    </g>
  </g>
  <path class="cls-1" d="m289.146,11.75l5.507-2.238c.552-.224,1.18.045,1.402.602l20.322,50.895c.222.557-.045,1.19-.597,1.414-.229.033-.458.066-.687.099h-6.006c-.111.005-.384,0-.662-.174-.377-.236-.493-.613-.519-.706-13.579-34.016-19.186-48.05-19.228-48.157-.059-.148-.102-.255-.128-.32-.027-.067-.163-.427.597-1.414Z"/>
  <g>
    <path class="cls-1" d="m282.048,40.288c2.887,0,5.773-.001,8.66-.002.595.096,2.566.505,4.174,2.563,1.404,1.798,1.728,3.826,1.817,4.585l-22.879.006c-.512-.02-2.751-.18-4.515-2.517-1.347-1.785-1.669-3.85-1.759-4.631"/>
    <path class="cls-1" d="m296.984,40.288h-7.809v7.149h11.061c.033.003.442.034.707-.293.23-.284.172-.616.163-.664l-2.241-5.444c-.311-.281-.858-.678-1.593-.741-.1-.009-.197-.01-.289-.007Z"/>
  </g>
  <path class="cls-1" d="m295.545,9.556c-.557-.384-1.144-.36-1.331-.344-.761.096-1.608.297-2.5.689-2.865,1.26-4.282,3.609-4.683,4.329-3.447,8.531-6.894,17.063-10.341,25.594h7.968c.431-.644.678-1.177.783-1.415l10.982-27.18c-.003-.111-.047-1.099-.879-1.673Z"/>
  <g>
    <path class="cls-1" d="m273.333,47.919l-5.432,13.332c-.209.512.042,1.095.56,1.301.215.03.43.06.645.091h5.639c.104.004.36,0,.621-.16.354-.217.463-.564.487-.65,2.088-5.126,3.972-9.75,5.669-13.914h-8.189Z"/>
    <path class="cls-1" d="m293.465,15.937l-5.17-2.059c-.518-.206-1.107.042-1.316.554l-10.346,25.392h8.189c6.309-15.484,9.055-22.22,9.084-22.291.055-.136.096-.235.12-.294.025-.062.153-.393-.56-1.301Z"/>
  </g>
  <g>
    <path class="cls-1" d="m240.845,15.374l-5.17-2.059c-.518-.206-1.107.042-1.316.554l-19.077,46.82c-.209.512.042,1.095.56,1.301.215.03.43.06.645.091h5.639c.104.004.36,0,.621-.16.354-.217.463-.564.487-.65,12.748-31.292,18.011-44.203,18.051-44.301.055-.136.096-.235.12-.294.025-.062.153-.393-.56-1.301Z"/>
    <path class="cls-1" d="m236.526,11.188l5.507-2.238c.552-.224,1.18.045,1.402.602l20.322,50.895c.222.557-.045,1.19-.597,1.414-.229.033-.458.066-.687.099h-6.006c-.111.005-.384,0-.662-.174-.377-.236-.493-.613-.519-.706-13.579-34.016-19.186-48.05-19.228-48.157-.059-.148-.102-.255-.128-.32-.027-.067-.163-.427.597-1.414Z"/>
    <path class="cls-1" d="m241.595,8.649c-.761.096-1.608.297-2.5.689-2.865,1.26-4.282,3.609-4.683,4.329-3.964,9.811-7.928,19.622-11.892,29.434.82.182,3.03.558,5.49-.475,3.221-1.352,4.53-4.138,4.812-4.78l10.982-27.18c-.003-.111-.047-1.099-.879-1.673-.557-.384-1.144-.36-1.331-.344Z"/>
    <path class="cls-1" d="m240.334,23.631c-.028-.065-.311-.689-.836-.725-.585-.04-.916.688-.932.725v-2.673h1.768v2.673Z"/>
  </g>
  <g>
    <rect class="cls-1" x="183.504" y="10.362" width="7.511" height="52.277" rx="1" ry="1"/>
    <rect class="cls-1" x="188.875" y="32.134" width="20.265" height="6.533" rx="1" ry="1"/>
    <path class="cls-1" d="m190.534,56.11h16.391c3.054,0,5.533,2.479,5.533,5.533h0c0,.552-.448,1-1,1h-20.924c-.552,0-1-.448-1-1v-4.533c0-.552.448-1,1-1Z"/>
    <path class="cls-1" d="m189.403,10.362h18.136c3.054,0,5.533,2.479,5.533,5.533h0c0,.552-.448,1-1,1h-22.669c-.552,0-1-.448-1-1v-4.533c0-.552.448-1,1-1Z"/>
    <path class="cls-1" d="m191.007,33.925h-.472c-.552,0-1-.448-1-1v-.75c0-.552.448-1,1-1h.472c0,.552.448,1,1,1v.75c-.552,0-1,.448-1,1Z"/>
    <path class="cls-1" d="m191.01,57.901h-.472c-.552,0-1-.448-1-1v-.75c0-.552.448-1,1-1h.472c0,.552.448,1,1,1v.75c-.552,0-1,.448-1,1Z"/>
    <path class="cls-1" d="m191.014,39.668h-.472c-.552,0-1-.448-1-1v-.75c0-.552.448-1,1-1h.472c0,.552.448,1,1,1v.75c-.552,0-1,.448-1,1Z"/>
    <path class="cls-1" d="m191.01,17.894h-.472c-.552,0-1-.448-1-1v-.75c0-.552.448-1,1-1h.472c0,.552.448,1,1,1v.75c-.552,0-1,.448-1,1Z"/>
  </g>
  <g>
    <rect class="cls-1" x="89.178" y="10.132" width="7.511" height="52.277" rx="1" ry="1"/>
    <rect class="cls-1" x="56.124" y="10.132" width="7.511" height="52.277" rx="1" ry="1"/>
    <rect class="cls-1" x="62.863" y="31.792" width="26.315" height="6.568"/>
    <path class="cls-1" d="m63.63,35.076h-1.395c0-.542-.439-.981-.981-.981v-2.296c.542,0,.981-.439.981-.981h1.395c0,.542.439.981.981.981v2.296c-.542,0-.981.439-.981.981Z"/>
    <path class="cls-1" d="m63.63,39.335h-1.395c0-.542-.439-.981-.981-.981v-2.296c.542,0,.981-.439.981-.981h1.395c0,.542.439.981.981.981v2.296c-.542,0-.981.439-.981.981Z"/>
    <path class="cls-1" d="m90.575,39.335h-1.395c0-.542-.439-.981-.981-.981v-2.296c.542,0,.981-.439.981-.981h1.395c0,.542.439.981.981.981v2.296c-.542,0-.981.439-.981.981Z"/>
    <path class="cls-1" d="m90.582,35.07h-1.395c0-.542-.439-.981-.981-.981v-2.296c.542,0,.981-.439.981-.981h1.395c0,.542.439.981.981.981v2.296c-.542,0-.981.439-.981.981Z"/>
  </g>
  <g>
    <rect class="cls-1" x="36.935" y="10.132" width="7.511" height="52.277" rx="1" ry="1"/>
    <path class="cls-1" d="m36.271,10.287c-2.56.539-4.042,2.296-4.467,2.84-4.545,7.709-9.09,15.417-13.635,23.126.17.081.418.189.725.3-1.104.696-1.787,1.514-2.054,1.855-4.545,7.709-9.09,15.417-13.635,23.126.666.314,2.474,1.061,4.666.64,2.871-.551,4.315-2.704,4.632-3.205l13.468-22.843c-.153-.072-.374-.168-.644-.265,1.241-.828,1.934-1.848,2.14-2.173l13.468-22.843c-.648-.304-2.428-1.03-4.664-.559Z"/>
    <path class="cls-1" d="m.042,44.195c-.014-10.582-.028-21.164-.042-31.745.101-.818.531-3.527,2.712-5.771,1.905-1.96,4.056-2.444,4.861-2.581l.042,31.356c-.02.701-.187,3.774-2.663,6.238-1.891,1.882-4.081,2.364-4.909,2.503"/>
    <rect class="cls-1" x=".052" y="11.73" width="7.511" height="50.57" rx="1" ry="1"/>
    <rect class="cls-1" x="17.206" y="21.01" width="6.675" height="35.5" transform="translate(22.63 -5.058) rotate(30.65)"/>
    <g>
      <path class="cls-1" d="m37.991,16.683l1.105.542-1.732,3.532-.387-.19c.194-.397.031-.876-.366-1.07l1.379-2.814Z"/>
      <path class="cls-1" d="m36.886,16.141l1.105.542-1.379,2.814c-.397-.194-.876-.031-1.07.366l-.387-.19,1.732-3.532Z"/>
      <path class="cls-1" d="m6.246,54.962l-1.059-.627,2.005-3.384.37.219c-.225.38-.1.871.28,1.096l-1.598,2.696Z"/>
      <path class="cls-1" d="m7.304,55.589l-1.059-.627,1.598-2.696c.38.225.871.1,1.096-.28l.37.219-2.005,3.384Z"/>
    </g>
  </g>
  <g>
    <path class="cls-1" d="m168.625,10.362h-4.732c-.141-.019-.405-.036-.713.063-.317.102-.526.277-.629.376-6.92,7.415-13.84,14.83-20.76,22.246l1.983,1.851c1.615,1.507,4.146,1.42,5.654-.195,4.795-4.649,8.233-8.562,10.548-11.37,1.776-2.154,4.915-6.11,10.014-10.664.63-.563,1.16-1.018,1.52-1.324.506-.229.748-.418.725-.568-.047-.312-1.251-.451-3.611-.415Z"/>
    <path class="cls-1" d="m169.395,62.393h-4.732c-.141.021-.405.039-.713-.068-.317-.111-.526-.301-.629-.408-6.92-8.048-13.84-16.097-20.76-24.145l1.983-2.009c1.615-1.636,4.146-1.541,5.654.212,4.795,5.046,8.233,9.293,10.548,12.341,1.776,2.338,4.915,6.632,10.014,11.575.63.611,1.16,1.105,1.52,1.437.506.249.748.454.725.616-.047.339-1.251.489-3.611.45Z"/>
    <path class="cls-1" d="m143.574,32.911h-2.801v-2.801h1.801c0,.552.448,1,1,1v1.801Z"/>
    <path class="cls-1" d="m142.5,41.829l-2.504-.406,1.166-7.199,4.478.725-.846,5.224c-1.09-.177-2.117.564-2.294,1.655Z"/>
    <rect class="cls-1" x="141.347" y="33.295" width="2.741" height="2"/>
    <path class="cls-1" d="m149.82,35.676l-1.35,1.35-2.057-2.057,2.057-2.057,1.35,1.35c-.391.391-.391,1.024,0,1.414Z"/>
    <path class="cls-1" d="m108.958,10.254h4.738c.141-.019.405-.036.714.063.318.102.527.277.63.376,6.929,7.415,13.859,14.83,20.788,22.246l-1.986,1.851c-1.617,1.507-4.152,1.42-5.661-.195-4.802-4.649-8.244-8.562-10.562-11.37-1.779-2.154-4.921-6.11-10.028-10.664-.631-.563-1.162-1.018-1.522-1.324-.507-.229-.749-.418-.726-.568.047-.312,1.253-.451,3.616-.415Z"/>
    <path class="cls-1" d="m108.187,62.286h4.738c.141.021.405.039.714-.068.318-.111.527-.301.63-.408,6.929-8.048,13.859-16.097,20.788-24.145l-1.986-2.009c-1.617-1.636-4.152-1.541-5.661.212-4.802,5.046-8.244,9.293-10.562,12.341-1.779,2.338-4.921,6.632-10.028,11.575-.631.611-1.162,1.105-1.522,1.437-.507.249-.749.454-.726.616.047.339,1.253.489,3.616.45Z"/>
    <path class="cls-1" d="m134.044,32.804h2.805v-2.801h-1.805c0,.552-.448,1-1,1v1.801Z"/>
    <path class="cls-1" d="m135.115,41.722l2.511-.406-1.168-7.199-4.484.725.847,5.225c1.09-.176,2.117.564,2.294,1.654Z"/>
    <rect class="cls-1" x="133.529" y="33.187" width="2.745" height="2" transform="translate(269.803 68.375) rotate(180)"/>
    <path class="cls-1" d="m127.789,35.568l1.352,1.35,2.06-2.057-2.06-2.057-1.352,1.35c.391.391.391,1.024,0,1.414Z"/>
    <g>
      <path class="cls-1" d="m134.99,44.846c-.014-10.582-.028-21.164-.042-31.745.101-.818.531-3.527,2.712-5.771,1.905-1.96,4.056-2.444,4.861-2.581l.042,31.356c-.02.701-.187,3.774-2.663,6.238-1.891,1.882-4.081,2.364-4.909,2.503"/>
      <rect class="cls-1" x="135" y="12.381" width="7.511" height="50.57" rx="1" ry="1"/>
    </g>
  </g>
</svg>